<svg version="1.0" xmlns="http://www.w3.org/2000/svg" width="42.67" height="42.67" viewBox="0 0 32 32"><path d="M18.4 4.5c-.4.9-.2 2.1.3 2.6 1.4 1.4 4.5-.1 4.1-2-.4-2.2-3.7-2.6-4.4-.6zM11.2 5.3c-1.4 1.6-.6 2.7 2 2.7 1.3 0 1.8-.6 1.6-1.7-.4-2.2-2.2-2.7-3.6-1zM11.9 13.9c-6.7 6.8-.2 16.5 8.2 12.1 1-.6 1.9-1.5 1.9-2 0-.6-.8-.5-1.9.1-1 .7-2.6.9-3.6.5-1.6-.6-1.4-1.1 1.8-4 3.8-3.5 4.6-6.3 2.5-8.4-2.1-2.1-5.8-1.3-8.9 1.7zm6.1.9c0 1-.7 2.7-1.5 3.8-1.4 1.9-1.4 1.9-1.5-.3 0-2.8 1-5.3 2.1-5.3.5 0 .9.8.9 1.8z"/></svg>